<svg width="366" height="20" viewBox="0 0 366 20" fill="none" xmlns="http://www.w3.org/2000/svg">
  <!-- Time -->
  <text x="8" y="14" font-family="SF Pro Display" font-size="14" font-weight="600" fill="#FFFFFF">9:41</text>
  
  <!-- Signal bars -->
  <rect x="320" y="6" width="3" height="6" fill="#FFFFFF"/>
  <rect x="325" y="4" width="3" height="8" fill="#FFFFFF"/>
  <rect x="330" y="2" width="3" height="10" fill="#FFFFFF"/>
  <rect x="335" y="1" width="3" height="11" fill="#FFFFFF"/>
  
  <!-- WiFi -->
  <path d="M345 8C347 6 349 6 351 8" stroke="#FFFFFF" stroke-width="1.5" fill="none"/>
  <path d="M344 10C346 8 348 8 350 10" stroke="#FFFFFF" stroke-width="1.5" fill="none"/>
  <path d="M343 12C345 10 347 10 349 12" stroke="#FFFFFF" stroke-width="1.5" fill="none"/>
  
  <!-- Battery -->
  <rect x="355" y="4" width="20" height="12" rx="2" ry="2" fill="none" stroke="#FFFFFF" stroke-width="1"/>
  <rect x="375" y="7" width="2" height="6" rx="1" ry="1" fill="#FFFFFF"/>
  <rect x="357" y="6" width="14" height="8" rx="1" ry="1" fill="#34C759"/>
</svg>
